<svg xmlns="http://www.w3.org/2000/svg" viewBox="0 0 70 70">
<path fill="#FF0025" d="M28.5,33c-3,0-5.5,2.5-5.5,5.5c0,1.7,0.8,3.2,2,4.2V46h3v11h4V42.7c1.2-1,2-2.5,2-4.2C34,35.5,31.5,33,28.5,33z"/>
<path fill="#FF0025" d="M48.5,14c-1.7,0-3.2,0.8-4.2,2H30v7h14.3c1,1.2,2.5,2,4.2,2c3,0,5.5-2.5,5.5-5.5S51.5,14,48.5,14z"/>
<circle fill="#FFFFFF" cx="28.5" cy="38.5" r="3.5"/>
<polygon fill="#FFFFFF" points="27,44 27,46 28,46 28,55 30,55 30,44"/>
<path fill="#4C4C4C" d="M25,31.9c1-0.6,2.2-0.9,3.5-0.9c1.3,0,2.5,0.3,3.5,0.9V25h-4V14h4v-3h3l-6.5-7L22,11h3V31.9z"/>
<circle fill="#FFFFFF" cx="48.5" cy="19.5" r="3.5"/>
<rect x="32" y="18" fill="#FFFFFF" width="11" height="3"/>
<path d="M52,31c0,2.8-2.2,5-5,5h-8c-2.8,0-5-2.2-5-5l0,0c0-2.8,2.2-5,5-5h8C49.8,26,52,28.2,52,31L52,31z"/>
<circle fill="#7A7A7A" cx="39" cy="31" r="3"/>
<circle fill="#FF0025" cx="47" cy="31" r="3"/>
<rect x="12" y="48" width="14" height="14"/>
<path fill="#FFFFFF" d="M21.8,50.8C21,50.3,20,50,19,50c-2.8,0-5,2.2-5,5c0,1,0.3,2,0.8,2.8L21.8,50.8z"/>
<path fill="#FFFFFF" d="M16.2,59.2C17,59.7,18,60,19,60c2.8,0,5-2.2,5-5c0-1-0.3-2-0.8-2.8L16.2,59.2z"/>
<rect x="28" y="59" fill="#4C4C4C" width="4" height="3"/>
</svg>
