<svg xmlns="http://www.w3.org/2000/svg" viewBox="0 0 70 70">
<rect x="25" y="3" fill="#FF0025" width="20" height="20"/>
<rect x="27" y="5" fill="#FFFFFF" width="16" height="16"/>
<rect x="29" y="7" width="12" height="12"/>
<circle fill="#7A7A7A" cx="35" cy="13" r="4"/>
<polygon fill="#B3B3B3" points="43.098,53.026 38.464,45 43.098,36.974 37.902,33.974 35,39 32.098,33.974 26.902,36.974 31.536,45 26.902,53.026 32.098,56.026 35,51 37.902,56.026"/>
<polygon fill="#FFFFFF" points="38.335,55.776 35.001,50.002 35,50 31.665,55.776 27.335,53.276 32.113,45 27.335,36.724 31.665,34.224 35,40 38.335,34.224 42.665,36.724 37.887,45 42.665,53.276"/>
<rect x="24" y="53.856" transform="matrix(0.866 0.5 -0.5 0.866 33.0455 -5.6147)" fill="#FF0025" width="6" height="10"/>
<rect x="40" y="26.144" transform="matrix(0.866 0.5 -0.5 0.866 21.3327 -17.3275)" fill="#FF0025" width="6" height="10"/>
<rect x="24" y="26.144" transform="matrix(0.866 -0.5 0.5 0.866 -11.9545 17.6725)" fill="#FF0025" width="6" height="10"/>
<rect x="40" y="53.856" transform="matrix(0.866 -0.5 0.5 0.866 -23.6673 29.3853)" fill="#FF0025" width="6" height="10"/>
</svg>
