<svg viewBox="0 0 70 70" xmlns="http://www.w3.org/2000/svg">
<rect x="25" y="3" width="20" height="20" fill="#FF0025"/>
<rect x="27" y="5" width="16" height="16" fill="#fff"/>
<rect x="29" y="7" width="12" height="12"/>
<polygon points="43.1 53 38.5 45 43.1 37 37.9 34 35 39 32.1 34 26.9 37 31.5 45 26.9 53 32.1 56 35 51 37.9 56" fill="#B3B3B3"/>
<polygon points="38.3 55.8 35 50 35 50 31.7 55.8 27.3 53.3 32.1 45 27.3 36.7 31.7 34.2 35 40 38.3 34.2 42.7 36.7 37.9 45 42.7 53.3" fill="#fff"/>
<g fill="#ff0025">
	<path d="m26.9 53 5.2 3c-1.67 2.89-3.33 5.77-5 8.66l-5.2-3c1.67-2.89 3.33-5.77 5-8.66z"/>
	<path d="m42.9 25.3 5.2 3c-1.67 2.89-3.33 5.77-5 8.66l-5.2-3c1.67-2.89 3.33-5.77 5-8.66z"/>
	<path d="m21.9 28.3c1.73-1 3.46-2 5.2-3 1.67 2.89 3.33 5.77 5 8.66-1.73 1-3.46 2-5.2 3-1.67-2.89-3.33-5.77-5-8.66z"/>
	<path d="m37.9 56c1.73-1 3.46-2 5.2-3 1.67 2.89 3.33 5.77 5 8.66-1.73 1-3.46 2-5.2 3-1.67-2.89-3.33-5.77-5-8.66z"/>
</g>
<circle cx="35" cy="13" r="4" fill="#FF0025"/>
</svg>
