<svg xmlns="http://www.w3.org/2000/svg" viewBox="0 0 70 70">
<path fill="#FF0025" d="M47.3,7.6c-2.1-2.1-5.6-2.1-7.8,0c-1.2,1.2-1.7,2.8-1.6,4.4L27.8,22.1l4.9,5L42.9,17c1.6,0.1,3.2-0.4,4.4-1.6 C49.4,13.2,49.4,9.8,47.3,7.6z"/>
<path fill="#FF0025" d="M47.3,38.6c-2.1-2.1-5.6-2.1-7.8,0c-1.2,1.2-1.7,2.8-1.6,4.4L27.8,53.1l4.9,5L42.9,48c1.6,0.1,3.2-0.4,4.4-1.6 C49.4,44.2,49.4,40.8,47.3,38.6z"/>
<circle fill="#FFFFFF" cx="43.4" cy="11.5" r="3.5"/>
<rect x="30.1" y="17.8" transform="matrix(0.7071 -0.7071 0.7071 0.7071 -3.2039 30.8248)" fill="#FFFFFF" width="11" height="3"/>
<polygon fill="#4C4C4C" points="32,11 35,11 28.5,4 22,11 25,11 25,22.1 32,15.1"/>
<polygon fill="#4C4C4C" points="28,56.1 28,62 32,62 32,60.1"/>
<circle fill="#FFFFFF" cx="43.4" cy="42.5" r="3.5"/>
<rect x="30.1" y="48.8" transform="matrix(0.7071 -0.7071 0.7071 0.7071 -25.1238 39.9043)" fill="#FFFFFF" width="11" height="3"/>
<path d="M48.2,21.8c1.9,1.9,1.9,5.1,0,7.1l-5.7,5.7c-1.9,1.9-5.1,1.9-7.1,0l0,0c-1.9-1.9-1.9-5.1,0-7.1l5.7-5.7 C43.1,19.9,46.2,19.9,48.2,21.8z"/>
<circle fill="#2FA938" cx="39" cy="31" r="3"/>
<circle fill="#7A7A7A" cx="44.7" cy="25.3" r="3"/>
<path d="M48.2,52.8c1.9,1.9,1.9,5.1,0,7.1l-5.7,5.7c-1.9,1.9-5.1,1.9-7.1,0l0,0c-1.9-1.9-1.9-5.1,0-7.1l5.7-5.7 C43.1,50.9,46.2,50.9,48.2,52.8z"/>
<circle fill="#FFCC00" cx="39" cy="62" r="3"/>
<circle fill="#7A7A7A" cx="44.7" cy="56.3" r="3"/>
<rect x="12" y="48" width="14" height="14"/>
<path fill="#FFFFFF" d="M21.8,50.8C21,50.3,20,50,19,50c-2.8,0-5,2.2-5,5c0,1,0.3,2,0.8,2.8L21.8,50.8z"/>
<path fill="#FFFFFF" d="M16.2,59.2C17,59.7,18,60,19,60c2.8,0,5-2.2,5-5c0-1-0.3-2-0.8-2.8L16.2,59.2z"/>
<polygon fill="#4C4C4C" points="25,22.1 25,46 28,46 28,50.1 32,46.1 32,29.1"/>
</svg>
